<?xml version="1.0" encoding="UTF-8"?>
<svg id="Capa_1" xmlns="http://www.w3.org/2000/svg" version="1.1" viewBox="0 0 800 800">
  <!-- Generator: Adobe Illustrator 29.7.1, SVG Export Plug-In . SVG Version: 2.1.1 Build 8)  -->
  <path d="M714.64,408.79c-3.66-23.04-11.33-43.19-23.4-60.64-13.24-19.76-30.1-34.19-50.5-43.39-20.5-9.09-43.41-13.64-68.89-13.64-42.93,0-77.78,13.51-104.79,40.59-26.9,27.08-40.32,66-40.32,116.78,0,54.19,14.99,93.28,44.71,117.31,29.82,23.96,64.17,36.07,103.19,36.07,47.2,0,83.96-14.3,110.12-42.78,16.94-17.96,26.34-35.54,28.38-52.94h-78.17c-4.55,8.54-9.75,15.32-15.7,20.09-10.97,8.99-25.05,13.39-42.5,13.39-16.49,0-30.59-3.58-42.19-10.97-19.31-11.81-29.44-32.39-30.64-61.83h213.29c.38-25.35-.51-44.76-2.59-58.05ZM505.83,416.28c2.79-19.1,9.55-34.19,20.4-45.34,10.82-11.1,26.06-16.79,45.75-16.79,18.06,0,33.18,5.31,45.29,15.9,12.24,10.49,19.03,25.94,20.53,46.23h-131.97Z"/>
  <rect x="488.99" y="212.52" width="164.64" height="40.9"/>
  <path d="M324.6,598.96c17.71-3.66,33.1-10.52,46.13-20.53,11.56-8.69,21.19-19.41,28.96-32.16,12.19-19.2,18.14-40.98,18.11-65.26,0-23.4-5.31-43.44-15.93-59.85-10.54-16.56-26.32-28.48-47.12-36.15,13.74-6.99,24.13-14.71,31.12-23.27,12.65-15.17,18.93-35.13,18.93-60.21s-6.17-44.99-18.7-62.39c-20.83-28.38-56.14-42.8-105.88-43.54H82.71v408.89h184.2c20.68,0,39.93-1.83,57.69-5.54ZM177.06,266.58h76.08c19.54,0,35.67,2.18,48.27,6.38,14.66,6.07,21.92,18.7,21.92,37.72,0,17.25-5.49,29.21-16.54,35.95-11.08,6.76-25.48,10.14-43.24,10.16h-86.5v-90.21ZM177.06,533.47v-109.03h87.77c17.5.2,31.14,2.44,40.85,6.91,17.38,7.95,26.04,22.61,26.04,43.87,0,25.17-8.99,42.17-26.85,51.06-9.93,4.85-23.68,7.19-41.43,7.19h-86.37Z"/>
</svg>